#!OML:ASF F:\VICON\USERDATA\INSTALL\rory3\rory3.ASF
:FULLY-SPECIFIED
:DEGREES
1855
root -1.41958 17.8242 0.927573 6.34933 3.18564 2.72115
lowerback 8.334 -1.4629 -0.258596
upperback 1.15157 -1.77994 4.96881
thorax -3.31212 -0.856714 5.52728
lowerneck -21.4168 -14.7821 -12.3162
upperneck 5.22245 -18.6092 16.2423
head 7.76888 -8.0119 4.54104
rclavicle 3.02153e-014 -2.70347e-014
rhumerus 43.0051 -34.4415 -40.8279
rradius 49.2386
rwrist 25.8698
rhand -60.5295 -24.4422
rfingers 7.12502
rthumb -32.6558 -51.5144
lclavicle 3.02153e-014 -2.70347e-014
lhumerus 90.145 -51.755 23.5533
lradius 39.0842
lwrist -43.5861
lhand -45.3783 48.9703
lfingers 7.12502
lthumb -18.1476 78.1437
rfemur -19.2653 0.984854 12.8875
rtibia 33.5371
rfoot -16.4539 -2.56166
rtoes -0.0317414
lfemur -9.25411 -0.929516 -14.2764
ltibia 18.3589
lfoot -7.30941 18.1919
ltoes -21.7152
1856
root -1.41678 17.8219 0.925036 6.31906 3.14292 2.69995
lowerback 8.42206 -1.46572 -0.191136
upperback 1.12995 -1.77061 5.06553
thorax -3.38373 -0.850894 5.59487
lowerneck -21.3714 -14.8009 -12.3238
upperneck 5.39086 -18.6411 16.1139
head 7.80592 -8.03334 4.49444
rclavicle -2.46493e-014 3.81667e-014
rhumerus 42.3054 -34.191 -40.224
rradius 49.2496
rwrist 24.3574
rhand -60.7736 -24.8322
rfingers 7.12502
rthumb -32.888 -51.856
lclavicle -2.46493e-014 3.81667e-014
lhumerus 90.145 -51.755 23.5533
lradius 39.0842
lwrist -43.5861
lhand -45.3783 48.9703
lfingers 7.12502
lthumb -18.1476 78.1437
rfemur -19.2542 1.07263 12.9019
rtibia 33.5754
rfoot -16.5098 -2.64274
rtoes -0.200228
lfemur -9.23864 -0.874927 -14.2614
ltibia 18.3568
lfoot -6.75901 18.0686
ltoes -23.6446
1857
root -1.40998 17.8208 0.922993 6.24985 3.17028 2.73301
lowerback 8.52672 -1.47888 -0.122852
upperback 1.1358 -1.77634 5.13345
thorax -3.43548 -0.853363 5.63294
lowerneck -21.3738 -14.8687 -12.3345
upperneck 5.56186 -18.738 16.0099
head 7.86332 -8.08076 4.44087
rclavicle 2.78299e-014 -1.74931e-014
rhumerus 41.9849 -34.22 -40.2473
rradius 49.2642
rwrist 23.5855
rhand -60.8007 -25.0004
rfingers 7.12502
rthumb -32.9138 -52.0188
lclavicle 2.78299e-014 -1.74931e-014
lhumerus 90.145 -51.755 23.5533
lradius 39.0842
lwrist -43.5861
lhand -45.3783 48.9703
lfingers 7.12502
lthumb -18.1476 78.1437
rfemur -19.2004 1.06843 12.8431
rtibia 33.6241
rfoot -16.5567 -2.70232
rtoes -0.247831
lfemur -9.19083 -0.978876 -14.312
ltibia 18.3771
lfoot -6.55507 18.0642
ltoes -24.4115
1858
root -1.40237 17.8207 0.921888 6.21035 3.15535 2.75632
lowerback 8.59526 -1.47448 -0.0546666
upperback 1.11917 -1.75928 5.18497
thorax -3.49324 -0.84422 5.65033
lowerneck -21.2458 -14.9015 -12.3085
upperneck 5.59244 -18.7931 15.9151
head 7.84618 -8.11934 4.40163
rclavicle 1.78906e-014 -4.13472e-014
rhumerus 41.8753 -34.4451 -40.9014
rradius 49.4356
rwrist 23.4511
rhand -60.6574 -25.5195
rfingers 7.12502
rthumb -32.7774 -52.5664
lclavicle 1.78906e-014 -4.13472e-014
lhumerus 90.145 -51.755 23.5533
lradius 39.0842
lwrist -43.5861
lhand -45.3783 48.9703
lfingers 7.12502
lthumb -18.1476 78.1437
rfemur -19.2014 1.03552 12.8
rtibia 33.6975
rfoot -16.5316 -2.66503
rtoes -0.421358
lfemur -9.13782 -0.990657 -14.3667
ltibia 18.3566
lfoot -6.4616 18.0745
ltoes -24.9021
1859
root -1.39525 17.8201 0.921285 6.20123 3.12733 2.85365
lowerback 8.59269 -1.47361 -0.0584272
upperback 1.12904 -1.7588 5.18883
thorax -3.48132 -0.844225 5.65612
lowerneck -21.187 -14.885 -12.2647
upperneck 5.59677 -18.7923 15.9303
head 7.83652 -8.11968 4.40315
rclavicle 1.19271e-014 -6.20208e-014
rhumerus 42.0751 -34.838 -42.114
rradius 49.5873
rwrist 23.7128
rhand -60.4726 -25.0731
rfingers 7.12502
rthumb -32.6017 -52.1565
lclavicle 1.19271e-014 -6.20208e-014
lhumerus 90.145 -51.755 23.5533
lradius 39.0842
lwrist -43.5861
lhand -45.3783 48.9703
lfingers 7.12502
lthumb -18.1476 78.1437
rfemur -19.2406 0.97635 12.6669
rtibia 33.7726
rfoot -16.5314 -2.58597
rtoes -0.756066
lfemur -9.10845 -0.91713 -14.5064
ltibia 18.3171
lfoot -6.36457 18.0139
ltoes -24.7746
1860
root -1.38668 17.8189 0.920085 6.16779 3.07405 3.02829
lowerback 8.60946 -1.44662 -0.154243
upperback 1.15194 -1.73297 5.17358
thorax -3.46688 -0.83077 5.69187
lowerneck -21.1088 -14.8831 -12.1924
upperneck 5.58722 -18.8148 15.9191
head 7.81628 -8.13403 4.38886
rclavicle 1.98785e-014 -4.45278e-014
rhumerus 42.143 -35.1853 -42.9841
rradius 49.756
rwrist 23.6594
rhand -60.3252 -24.6332
rfingers 7.12502
rthumb -32.4614 -51.7456
lclavicle 1.98785e-014 -4.45278e-014
lhumerus 90.145 -51.755 23.5533
lradius 39.0842
lwrist -43.5861
lhand -45.3783 48.9703
lfingers 7.12502
lthumb -18.1476 78.1437
rfemur -19.2401 0.932785 12.4368
rtibia 33.8397
rfoot -16.5273 -2.54226
rtoes -0.91681
lfemur -9.04668 -0.787901 -14.7401
ltibia 18.2976
lfoot -6.29492 17.9312
ltoes -24.5103
1861
root -1.37561 17.8197 0.919192 6.16179 2.99009 3.16013
lowerback 8.61983 -1.43988 -0.23125
upperback 1.1323 -1.72863 5.21524
thorax -3.48996 -0.826814 5.78097
lowerneck -21.1643 -14.9099 -12.0986
upperneck 5.78024 -18.8588 15.6858
head 7.85593 -8.16117 4.28761
rclavicle 1.78906e-014 -4.29375e-014
rhumerus 42.0873 -35.2412 -43.443
rradius 49.8207
rwrist 23.2464
rhand -60.2913 -24.7756
rfingers 7.12502
rthumb -32.4291 -51.8945
lclavicle 1.78906e-014 -4.29375e-014
lhumerus 90.145 -51.755 23.5533
lradius 39.0842
lwrist -43.5861
lhand -45.3783 48.9703
lfingers 7.12502
lthumb -18.1476 78.1437
rfemur -19.2432 0.911082 12.2476
rtibia 33.8819
rfoot -16.5677 -2.50492
rtoes -1.26215
lfemur -9.01251 -0.796026 -14.9469
ltibia 18.2976
lfoot -6.24214 18.0152
ltoes -24.9264
1862
root -1.36602 17.8209 0.918919 6.15404 2.88584 3.12829
lowerback 8.58413 -1.42275 -0.203328
upperback 1.12927 -1.70061 5.30834
thorax -3.47407 -0.813031 5.85982
lowerneck -21.231 -14.9315 -11.9533
upperneck 5.96118 -18.8885 15.3499
head 7.87351 -8.1891 4.14941
rclavicle 4.01545e-014 -1.11319e-014
rhumerus 41.8581 -35.1633 -43.6191
rradius 49.8215
rwrist 22.7343
rhand -60.3676 -25.8392
rfingers 7.12502
rthumb -32.5018 -52.9433
lclavicle 4.01545e-014 -1.11319e-014
lhumerus 90.145 -51.755 23.5533
lradius 39.0842
lwrist -43.5861
lhand -45.3783 48.9703
lfingers 7.12502
lthumb -18.1476 78.1437
rfemur -19.2817 0.982807 12.2415
rtibia 33.9141
rfoot -16.5757 -2.45245
rtoes -0.821115
lfemur -8.98307 -0.716777 -14.958
ltibia 18.307
lfoot -6.55174 18.1201
ltoes -24.0719
1863
root -1.35856 17.8227 0.917161 6.10595 2.82534 3.11463
lowerback 8.55294 -1.40024 -0.200858
upperback 1.20758 -1.67277 5.35984
thorax -3.3764 -0.801751 5.90661
lowerneck -21.2774 -14.9433 -11.7926
upperneck 5.99435 -18.9212 15.1948
head 7.86131 -8.21009 4.06925
rclavicle -3.97569e-016 2.8625e-014
rhumerus 41.7608 -35.2898 -44.022
rradius 49.9061
rwrist 22.4277
rhand -60.1957 -26.5419
rfingers 7.12502
rthumb -32.3382 -53.6794
lclavicle -3.97569e-016 2.8625e-014
lhumerus 90.145 -51.755 23.5533
lradius 39.0842
lwrist -43.5861
lhand -45.3783 48.9703
lfingers 7.12502
lthumb -18.1476 78.1437
rfemur -19.2846 1.04601 12.2382
rtibia 33.9232
rfoot -16.5337 -2.52935
rtoes -1.17628
lfemur -8.93584 -0.46734 -14.9772
ltibia 18.3328
lfoot -7.05452 18.0487
ltoes -22.0569
